<svg width="32" height="32" viewBox="0 0 32 32" fill="none" xmlns="http://www.w3.org/2000/svg">
<path d="M10.08 4.136C12.4933 4.136 14.6533 5.30933 16 7.10933C16.6878 6.18775 17.581 5.43919 18.6086 4.92306C19.6362 4.40693 20.77 4.13745 21.92 4.136C26.0133 4.136 29.3333 7.46934 29.3333 11.5893C29.3333 14.216 28.6533 16.536 27.5867 18.5493C26.9894 17.9141 26.2684 17.4078 25.4681 17.0616C24.6679 16.7153 23.8053 16.5365 22.9333 16.536C19.4 16.536 16.5333 19.4027 16.5333 22.936C16.5333 24.576 17.16 26.0693 18.1733 27.2027C17.68 27.4293 17.2267 27.616 16.8267 27.7493C16.3733 27.9093 15.6267 27.9093 15.1733 27.7493C11.3067 26.4293 2.66666 20.9227 2.66666 11.5893C2.66666 9.52267 3.49332 7.656 4.83999 6.30933" stroke="white" stroke-opacity="0.85" stroke-width="1.5" stroke-linecap="round" stroke-linejoin="round"/>
<path d="M25.32 23.0107H20.5467M22.9333 20.6773V25.464M22.9333 29.3307C23.7738 29.3307 24.606 29.1651 25.3825 28.8435C26.159 28.5219 26.8645 28.0505 27.4588 27.4562C28.0531 26.8619 28.5245 26.1563 28.8462 25.3798C29.1678 24.6034 29.3333 23.7711 29.3333 22.9307C29.3333 22.0902 29.1678 21.258 28.8462 20.4815C28.5245 19.705 28.0531 18.9995 27.4588 18.4052C26.8645 17.8109 26.159 17.3395 25.3825 17.0178C24.606 16.6962 23.7738 16.5307 22.9333 16.5307C21.2359 16.5307 19.6081 17.205 18.4078 18.4052C17.2076 19.6054 16.5333 21.2333 16.5333 22.9307C16.5333 24.6281 17.2076 26.2559 18.4078 27.4562C19.6081 28.6564 21.2359 29.3307 22.9333 29.3307Z" stroke="white" stroke-opacity="0.85" stroke-width="1.5" stroke-miterlimit="10" stroke-linecap="round" stroke-linejoin="round"/>
</svg>
