<svg width="32" height="32" viewBox="0 0 32 32" fill="none" xmlns="http://www.w3.org/2000/svg">
<path d="M22.624 19.2533C24.4507 19.56 26.464 19.24 27.8773 18.2933C29.7573 17.04 29.7573 14.9867 27.8773 13.7333C26.4507 12.7867 24.4107 12.4667 22.584 12.7867M9.33466 19.2533C7.50799 19.56 5.49466 19.24 4.08133 18.2933C2.20133 17.04 2.20133 14.9867 4.08133 13.7333C5.50799 12.7867 7.54799 12.4667 9.37466 12.7867M19.8787 23.7067C17.7587 22.2933 14.252 22.2933 12.1187 23.7067C10.2387 24.96 10.2387 27.0133 12.1187 28.2667C14.252 29.6933 17.7453 29.6933 19.8787 28.2667M23.9973 9.54667C23.9134 9.53333 23.8279 9.53333 23.744 9.54667C22.8542 9.51449 22.0117 9.13762 21.3947 8.49569C20.7776 7.85376 20.4343 6.99707 20.4373 6.10667C20.4373 4.2 21.9707 2.66667 23.8773 2.66667C24.7897 2.66667 25.6646 3.0291 26.3098 3.67422C26.9549 4.31935 27.3173 5.19433 27.3173 6.10667C27.3149 6.9977 26.968 7.85328 26.3492 8.49442C25.7304 9.13556 24.8877 9.5126 23.9973 9.54667ZM7.95999 9.54667C8.03999 9.53334 8.13333 9.53334 8.21333 9.54667C9.10315 9.51449 9.9456 9.13762 10.5627 8.49569C11.1797 7.85376 11.523 6.99707 11.52 6.10667C11.52 4.2 9.98666 2.66667 8.07999 2.66667C7.16765 2.66667 6.29267 3.0291 5.64754 3.67422C5.00242 4.31935 4.63999 5.19433 4.63999 6.10667C4.65333 7.97334 6.11999 9.48 7.95999 9.54667ZM15.9973 19.5053C15.9134 19.492 15.8279 19.492 15.744 19.5053C14.8542 19.4732 14.0117 19.0963 13.3947 18.4544C12.7776 17.8124 12.4343 16.9557 12.4373 16.0653C12.4373 14.1587 13.9707 12.6253 15.8773 12.6253C16.7897 12.6253 17.6646 12.9878 18.3098 13.6329C18.9549 14.278 19.3173 15.153 19.3173 16.0653C19.304 17.932 17.8373 19.452 15.9973 19.5053Z" stroke="white" stroke-opacity="0.85" stroke-width="1.5" stroke-linecap="round" stroke-linejoin="round"/>
</svg>
