<svg width="564" height="82" viewBox="0 0 564 82" fill="none" xmlns="http://www.w3.org/2000/svg">
<g clip-path="url(#clip0_2_15)">
<path d="M121.295 82C105.305 82 86.8928 63.8498 69.2881 44.2411C54.9136 28.1976 36.8244 9.72332 24.3881 9.72332C12.2748 9.72332 9.85215 16.6917 9.85215 22.6877C9.85215 28.3597 17.1201 35.166 19.5428 37.1107L24.5496 41L19.5428 44.8893C16.9586 46.834 9.85215 53.6403 9.85215 59.3122C9.85215 65.1462 12.4363 72.2767 24.3881 72.2767C32.3021 72.2767 43.4464 64.8221 58.4669 49.2648C60.405 47.3201 63.4737 47.3201 65.2503 49.2648C67.1885 51.2095 67.1885 54.2885 65.2503 56.0711C47.8072 73.8972 35.0478 82 24.2266 82C13.0824 82 0 76.0039 0 59.3122C0 51.8577 5.16834 45.0514 9.20611 41C5.32985 36.9486 0.161511 30.1423 0.161511 22.6877C0.161511 5.99605 13.2439 0 24.3881 0C40.3777 0 58.7899 18.1502 76.3946 37.7589C90.769 53.8024 108.858 72.2767 121.133 72.2767C133.246 72.2767 135.669 65.3083 135.669 59.3122C135.669 53.6403 128.401 46.834 125.978 44.8893L121.133 41L126.14 37.1107C128.724 35.166 135.831 28.3597 135.831 22.6877C135.831 16.8538 133.246 9.72332 121.295 9.72332C113.381 9.72332 102.236 17.1779 87.2158 32.7352C85.2777 34.6798 82.209 34.6798 80.4323 32.7352C78.4942 30.7905 78.4942 27.7115 80.4323 25.9288C97.8755 8.10277 110.635 0 121.456 0C132.6 0 145.683 5.99605 145.683 22.6877C145.683 30.1423 140.514 36.9486 136.477 41C140.514 45.0514 145.683 51.8577 145.683 59.3122C145.521 76.0039 132.439 82 121.295 82Z" fill="url(#paint0_linear_2_15)"/>
<path d="M178.966 53.294L179.739 53.6043C179.876 53.7077 180.117 53.8284 180.461 53.9663C182.419 54.8626 184.446 55.4831 186.542 55.8279C188.707 56.2071 190.802 56.3967 192.83 56.3967C194.169 56.3967 195.698 56.2588 197.416 55.983C199.169 55.7072 200.663 55.3108 201.9 54.7937C203.274 54.2766 204.408 53.5871 205.302 52.7252C206.195 51.8289 206.642 50.7774 206.642 49.5708C206.642 49.0882 206.59 48.6056 206.487 48.1229C206.315 47.5713 206.092 47.1404 205.817 46.8302C205.336 46.2096 204.7 45.658 203.91 45.1754C203.189 44.7962 202.295 44.4342 201.23 44.0895C199.89 43.7447 198.791 43.5206 197.932 43.4172C197.485 43.3483 196.858 43.2707 196.051 43.1845C195.243 43.0983 194.65 43.038 194.273 43.0035C193.826 42.9346 193.182 42.857 192.34 42.7708C191.498 42.6847 190.871 42.6243 190.459 42.5898C189.153 42.4864 187.916 42.3313 186.748 42.1244C185.374 41.9176 184.068 41.6073 182.831 41.1936C181.594 40.8144 180.478 40.2456 179.481 39.4872C178.588 38.8666 177.832 37.9703 177.214 36.7982C176.63 35.695 176.338 34.385 176.338 32.8682C176.338 31.4203 176.63 30.1102 177.214 28.9381C177.798 27.8005 178.536 26.8352 179.43 26.0423C180.392 25.1804 181.474 24.4737 182.677 23.9221C183.742 23.4395 185.03 22.9913 186.542 22.5777C187.951 22.2329 189.273 21.9916 190.51 21.8537C191.713 21.7158 192.967 21.6469 194.273 21.6469C196.575 21.6469 198.962 21.8365 201.436 22.2157C203.738 22.6294 206.023 23.3361 208.291 24.3358H208.394C208.428 24.3703 208.462 24.3875 208.497 24.3875H208.394L209.321 24.6461L208.961 24.491H209.012C209.081 24.491 209.115 24.5082 209.115 24.5427L209.528 24.6461L209.991 24.8012L208.188 29.4554L207.569 29.1451C205.508 28.0419 203.412 27.2835 201.282 26.8698C198.945 26.4906 196.609 26.301 194.273 26.301C192.795 26.301 191.318 26.4044 189.84 26.6112C188.294 26.887 186.937 27.249 185.769 27.6972C184.498 28.2143 183.484 28.8865 182.728 29.7139C181.938 30.6102 181.543 31.6617 181.543 32.8683C181.543 33.7646 181.766 34.5403 182.213 35.1953C182.659 35.8503 183.415 36.3846 184.48 36.7983C185.03 37.0396 185.769 37.2465 186.697 37.4189C187.762 37.6257 188.724 37.7636 189.583 37.8325C190.579 38.0049 191.558 38.1083 192.52 38.1428C193.036 38.2118 193.877 38.2807 195.046 38.3497C197.038 38.522 198.911 38.7461 200.663 39.0219C202.622 39.3666 204.425 39.9355 206.075 40.7284C207.758 41.5902 209.132 42.6934 210.198 44.0379C211.263 45.4168 211.795 47.2612 211.795 49.571C211.795 51.0189 211.503 52.3289 210.919 53.501C210.335 54.6042 209.528 55.6212 208.497 56.552C207.432 57.4483 206.281 58.1722 205.044 58.7238C203.807 59.2754 202.45 59.7408 200.972 60.12C199.598 60.4648 198.189 60.7233 196.746 60.8957C195.509 61.0336 194.204 61.1025 192.829 61.1025C191.283 61.1025 189.703 61.0164 188.088 60.844C186.611 60.6716 185.236 60.4131 183.965 60.0683C182.522 59.6546 181.216 59.2409 180.048 58.8272C178.399 58.2412 177.025 57.7068 175.925 57.2242L175.513 57.0691L177.832 52.7771L178.348 53.0357C178.622 53.1391 178.829 53.2251 178.966 53.294ZM245.398 22.1633C247.665 22.1633 249.675 22.577 251.427 23.4044C253.145 24.2317 254.588 25.2832 255.757 26.5587C256.89 27.7998 257.784 29.2305 258.437 30.8508C259.021 32.4366 259.313 33.9534 259.313 35.4013C259.313 37.2629 258.918 38.9522 258.127 40.469C257.371 41.9859 256.341 43.2959 255.035 44.3991C253.695 45.5367 252.218 46.3813 250.603 46.9329C248.885 47.5534 247.15 47.8637 245.398 47.8637H232.771V60.6362H227.669V24.8525C227.669 24.2664 227.927 23.6631 228.442 23.0426C228.923 22.4565 229.662 22.1635 230.658 22.1635L245.398 22.1633ZM232.771 43.2105H245.398C246.806 43.2105 248.026 42.9864 249.057 42.5382C250.122 42.0901 251.032 41.504 251.788 40.7801C252.51 40.0561 253.077 39.2115 253.489 38.2462C253.867 37.2809 254.056 36.3329 254.056 35.4021C254.056 34.4368 253.867 33.4198 253.489 32.3512C253.145 31.3859 252.596 30.4723 251.84 29.6105C251.049 28.7486 250.139 28.0764 249.108 27.5937C248.043 27.0766 246.806 26.8181 245.398 26.8181H232.771V43.2105ZM304.408 43.7275H279.258V55.9314H306.006V60.6371H277.144C276.182 60.6371 275.443 60.3268 274.928 59.7063C274.412 59.1203 274.155 58.5342 274.155 57.9481V24.8517C274.155 24.2656 274.412 23.6623 274.928 23.0418C275.409 22.4557 276.147 22.1627 277.144 22.1627H306.006V26.8168H279.258V39.0207H304.408V43.7275ZM359.554 29.6106L359.709 29.8691L355.895 32.92L355.534 32.4545C354.057 30.5585 352.304 29.0071 350.277 27.8005C348.285 26.6284 345.811 26.0424 342.856 26.0424C340.76 26.0424 338.75 26.4043 336.826 27.1283C334.868 27.9212 333.184 28.9727 331.775 30.2827C330.367 31.5582 329.199 33.144 328.271 35.0401C327.378 36.9362 326.931 38.9529 326.931 41.0903C326.931 42.8485 327.292 44.6411 328.013 46.4682C328.769 48.3643 329.817 50.0363 331.157 51.4842C332.566 53.0011 334.232 54.2421 336.156 55.2074C338.08 56.1727 340.313 56.6553 342.856 56.6553C345.948 56.6553 348.508 56.121 350.535 55.0523C352.596 53.9491 354.366 52.415 355.843 50.45L356.822 49.0538L360.791 52.1046L359.966 53.0354C357.63 55.8968 355.122 57.9652 352.442 59.2408C349.659 60.5508 346.464 61.2058 342.856 61.2058C340.142 61.2058 337.513 60.6887 334.971 59.6544C332.463 58.6892 330.229 57.2757 328.271 55.4141C326.312 53.587 324.766 51.4669 323.633 49.0537C322.464 46.675 321.88 44.0205 321.88 41.0902C321.88 38.8149 322.344 36.5224 323.272 34.2126C324.131 31.9373 325.471 29.8344 327.292 27.9038C329.147 25.9733 331.346 24.4392 333.888 23.3016C336.431 22.1294 339.42 21.5434 342.856 21.5434C344.608 21.5434 346.343 21.733 348.061 22.1122C349.71 22.5604 351.222 23.1292 352.597 23.8187C354.04 24.5771 355.328 25.4217 356.462 26.3525C357.664 27.3523 358.695 28.4384 359.554 29.6106ZM389.444 60.6371V26.8185H374.55V22.1644H409.491V26.8185H394.597V60.6371H389.444ZM452.476 60.6371L442.014 46.4165H430.521V60.6371H425.419V24.8534C425.419 24.2673 425.676 23.664 426.192 23.0435C426.673 22.4574 427.411 22.1644 428.408 22.1644H444.024C445.741 22.1644 447.408 22.4746 449.023 23.0952C450.603 23.7157 451.995 24.5776 453.197 25.6807C454.4 26.8184 455.362 28.1456 456.083 29.6625C456.77 31.2138 457.114 32.8686 457.114 34.6268C457.114 35.7644 456.925 36.9537 456.547 38.1948C456.1 39.4704 455.516 40.5735 454.795 41.5043C454.039 42.5041 453.06 43.4004 451.857 44.1933C450.62 45.0207 449.212 45.6067 447.631 45.9515L458.608 60.6373L452.476 60.6371ZM430.52 26.8185V41.7629H444.022C445.259 41.7629 446.376 41.5561 447.372 41.1424C448.3 40.7976 449.125 40.2633 449.846 39.5393C450.499 38.9188 450.997 38.1604 451.341 37.2641C451.684 36.4712 451.856 35.5921 451.856 34.6268C451.856 33.696 451.684 32.7824 451.341 31.8861C450.963 30.9208 450.465 30.0762 449.846 29.3523C449.159 28.5938 448.334 27.9905 447.372 27.5424C446.342 27.0597 445.225 26.8184 444.022 26.8184L430.52 26.8185ZM479.377 22.1633V44.5026C479.377 46.0539 479.721 47.5535 480.408 49.0014C481.061 50.3804 481.971 51.5698 483.139 52.5695C484.204 53.5693 485.493 54.3622 487.005 54.9482C488.482 55.5343 489.977 55.8273 491.488 55.8273C492.966 55.8273 494.477 55.5343 496.024 54.9482C497.501 54.3622 498.789 53.5693 499.889 52.5695C501.023 51.5353 501.916 50.3459 502.569 49.0014C503.222 47.657 503.548 46.1573 503.548 44.5025V22.1632H508.702V44.5025C508.702 46.8812 508.238 49.0531 507.31 51.0181C506.28 53.0521 505.008 54.7413 503.497 56.0858C501.916 57.4648 500.078 58.5507 497.982 59.3436C495.817 60.1365 493.653 60.5329 491.488 60.5329C489.324 60.5329 487.211 60.1193 485.149 59.2919C483.122 58.5334 481.284 57.413 479.635 55.9307C478.054 54.5517 476.766 52.8625 475.769 50.863C474.773 48.9324 474.275 46.8123 474.275 44.5025V22.1632L479.377 22.1633ZM558.846 60.6371V31.6777L544.828 53.3963L530.81 31.6777V60.6371H525.708V24.0761C525.708 23.49 525.965 22.904 526.481 22.3179C526.962 21.7319 527.7 21.4388 528.697 21.4388C529.281 21.4388 529.796 21.5595 530.243 21.8008C530.621 22.0421 530.947 22.3524 531.222 22.7316L544.828 44.0365L558.486 22.7316C558.76 22.3524 559.104 22.0421 559.516 21.8008C559.894 21.5595 560.41 21.4388 561.062 21.4388C562.162 21.4388 562.935 21.7146 563.382 22.2662C563.794 22.8523 564 23.4556 564 24.0761V60.6371H558.846Z" fill="white"/>
</g>
<defs>
<linearGradient id="paint0_linear_2_15" x1="0" y1="0" x2="145.683" y2="0" gradientUnits="userSpaceOnUse">
<stop stop-color="#26275F"/>
<stop offset="0.14" stop-color="#813E96"/>
<stop offset="0.29" stop-color="#2E64AF"/>
<stop offset="0.5" stop-color="#3FAA49"/>
<stop offset="0.71" stop-color="#F2E64A"/>
<stop offset="0.86" stop-color="#F2903B"/>
<stop offset="1" stop-color="#ED4533"/>
</linearGradient>
<clipPath id="clip0_2_15">
<rect width="564" height="82" fill="white"/>
</clipPath>
</defs>
</svg>
